<svg xmlns="http://www.w3.org/2000/svg" viewBox="0 0 650 280" role="img" aria-label="A thought becomes a sketch, then a clearer idea. A feedback arrow leads from the clearer idea back to the sketch."><defs><marker id="arrow" markerWidth="8" markerHeight="8" refX="6" refY="3" orient="auto"><path d="M0 0L6 3L0 6" fill="none" stroke="#555c69" stroke-width="1.4"/></marker></defs><g stroke="#555c69" stroke-width="1.7" fill="none" stroke-linecap="round" stroke-linejoin="round"><path d="M28 76Q90 72 171 77L174 163Q91 166 27 161Z"/><path d="M252 74L398 78L396 165L249 161Z" fill="#edf2ff" stroke="#3159cb"/><path d="M481 78Q551 73 623 76L626 164L480 162Z"/><path d="M189 119Q216 115 236 119M413 119Q444 117 465 120" marker-end="url(#arrow)"/><path d="M553 179Q557 230 437 230Q323 228 324 181" marker-end="url(#arrow)"/></g><g fill="#444b57" font-family="Georgia,serif" font-size="23" font-style="italic" text-anchor="middle"><text x="100" y="129">a thought</text><text x="323" y="129" fill="#3159cb">a sketch</text><text x="552" y="129">a clearer idea</text><text x="445" y="258" font-size="18" fill="#7b818d">look again</text></g></svg>